<svg width="28" height="24" viewBox="0 0 28 24" fill="none" xmlns="http://www.w3.org/2000/svg">
<path fill-rule="evenodd" clip-rule="evenodd" d="M1.94601 10.4361C9.23402 7.26083 14.0938 5.1675 16.5255 4.15611C23.4682 1.26837 24.9109 0.766741 25.8512 0.750177C26.058 0.746534 26.5204 0.797787 26.8199 1.04084C27.0728 1.24606 27.1424 1.52329 27.1757 1.71787C27.209 1.91244 27.2505 2.35569 27.2175 2.70203C26.8413 6.65512 25.2133 16.2482 24.3851 20.6758C24.0347 22.5492 23.3447 23.1774 22.6766 23.2388C21.2248 23.3724 20.1224 22.2794 18.7163 21.3577C16.5159 19.9153 15.2729 19.0175 13.1371 17.61C10.6688 15.9834 12.2689 15.0894 13.6756 13.6284C14.0437 13.2461 20.4403 7.42782 20.5642 6.90002C20.5796 6.83401 20.594 6.58795 20.4478 6.45802C20.3017 6.32809 20.0859 6.37252 19.9302 6.40786C19.7095 6.45795 16.1945 8.78126 9.38507 13.3778C8.38733 14.0629 7.48362 14.3967 6.67392 14.3792C5.78129 14.36 4.06423 13.8745 2.78777 13.4596C1.22214 12.9507 -0.022186 12.6816 0.0861672 11.8173C0.142604 11.3671 0.762552 10.9067 1.94601 10.4361Z" fill="white"/>
</svg>
